<svg fill="none" xmlns="http://www.w3.org/2000/svg" viewBox="0 0 308 25"><path fill-rule="evenodd" clip-rule="evenodd" d="M20.832 0c-5.556 0-9.028 2.778-10.417 8.333 2.084-2.777 4.514-3.82 7.292-3.125 1.585.397 2.718 1.546 3.971 2.819 2.043 2.073 4.407 4.473 9.57 4.473 5.556 0 9.028-2.778 10.417-8.333-2.083 2.777-4.514 3.819-7.291 3.125-1.585-.397-2.718-1.546-3.972-2.82C28.359 2.4 25.995 0 20.832 0ZM10.417 12.5C4.86 12.5 1.389 15.276 0 20.832c2.083-2.778 4.514-3.82 7.292-3.125 1.584.396 2.717 1.546 3.971 2.818C13.306 22.6 15.67 25 20.833 25c5.556 0 9.028-2.777 10.417-8.333-2.084 2.778-4.514 3.82-7.292 3.125-1.585-.396-2.717-1.546-3.971-2.819-2.043-2.073-4.407-4.473-9.57-4.473Z" fill="#38BDF8"/><path fill-rule="evenodd" clip-rule="evenodd" d="M62.5 10.528h-3.636v7.037c0 1.876 1.232 1.847 3.636 1.73v2.844c-4.867.586-6.803-.762-6.803-4.574v-7.037H53v-3.05h2.697V3.54l3.167-.938v4.877H62.5v3.049ZM76.363 7.48h3.166v14.66h-3.166V20.03c-1.114 1.554-2.844 2.492-5.131 2.492-3.988 0-7.301-3.372-7.301-7.711 0-4.369 3.313-7.711 7.3-7.711 2.288 0 4.018.938 5.132 2.462V7.48ZM71.728 19.5c2.639 0 4.632-1.964 4.632-4.691s-1.993-4.691-4.632-4.691c-2.64 0-4.633 1.964-4.633 4.691s1.994 4.691 4.633 4.691ZM84.804 5.28c-1.114 0-2.023-.938-2.023-2.023 0-1.114.909-2.023 2.023-2.023s2.023.909 2.023 2.023c0 1.085-.909 2.023-2.023 2.023ZM83.22 22.14V7.478h3.167v14.66H83.22Zm6.835 0V.736h3.166V22.14h-3.166ZM113.772 7.48h3.343l-4.604 14.66h-3.108l-3.049-9.88-3.079 9.88h-3.108L95.564 7.48h3.343l2.844 10.116 3.078-10.116h3.02l3.05 10.116 2.873-10.116Zm7.27-2.199c-1.114 0-2.023-.938-2.023-2.023 0-1.114.909-2.023 2.023-2.023s2.023.909 2.023 2.023c0 1.085-.909 2.023-2.023 2.023Zm-1.58 16.86V7.478h3.167v14.66h-3.167Zm14.544-15.041c3.284 0 5.63 2.228 5.63 6.04v9.001h-3.167v-8.679c0-2.228-1.29-3.401-3.284-3.401-2.082 0-3.724 1.231-3.724 4.222v7.858h-3.166V7.48h3.166v1.876c.968-1.524 2.551-2.257 4.545-2.257Zm20.639-5.483h3.166v20.525h-3.166V20.03c-1.114 1.554-2.844 2.492-5.131 2.492-3.988 0-7.301-3.372-7.301-7.711 0-4.37 3.313-7.712 7.301-7.712 2.287 0 4.017.939 5.131 2.463V1.616Zm-4.633 17.885c2.639 0 4.633-1.964 4.633-4.691s-1.994-4.691-4.633-4.691c-2.639 0-4.633 1.964-4.633 4.691s1.994 4.691 4.633 4.691Z" fill="#fff"/><path d="M172.815 7.444H162v2.772h3.948v11.928h2.898V10.216h3.969V7.444ZM187.117 7.444h-3.276l-3.192 6.132-3.192-6.132h-3.276l5.019 8.967v5.733h2.877v-5.733l5.04-8.967ZM195.057 7.444h-5.481v14.7h2.898v-4.83h2.583c2.835 0 5.019-2.184 5.019-4.935 0-2.75-2.184-4.935-5.019-4.935Zm0 7.161h-2.583v-4.452h2.583c1.239 0 2.142.945 2.142 2.226 0 1.26-.903 2.226-2.142 2.226ZM209.861 22.438c4.242 0 7.644-3.36 7.644-7.644 0-4.305-3.402-7.644-7.644-7.644s-7.623 3.34-7.623 7.644c0 4.284 3.381 7.644 7.623 7.644Zm0-2.835c-2.667 0-4.746-1.995-4.746-4.809 0-2.835 2.079-4.83 4.746-4.83 2.667 0 4.746 1.995 4.746 4.83 0 2.814-2.079 4.81-4.746 4.81ZM235.019 14.248h-7.371v2.562h4.452c-.504 1.68-1.974 2.793-4.284 2.793-3.066 0-5.019-2.058-5.019-4.788 0-2.793 2.016-4.85 4.809-4.85 1.785 0 3.276.86 3.948 2.036l2.478-1.428c-1.239-2.016-3.612-3.423-6.405-3.423-4.389 0-7.707 3.402-7.707 7.665 0 4.2 3.276 7.623 7.875 7.623 4.221 0 7.224-2.814 7.224-7.056v-1.134ZM246.194 22.144h3.129l-3.255-5.544c1.68-.777 2.835-2.436 2.835-4.284 0-2.688-2.184-4.872-4.893-4.872h-5.88v14.7h2.898v-5.103h2.205l2.961 5.103Zm-5.166-11.99h2.982c1.092 0 1.995.944 1.995 2.162s-.903 2.184-1.995 2.184h-2.982v-4.347ZM261.53 22.144h3.15l-5.166-14.7h-3.591l-5.145 14.7h3.129l.881-2.646h5.859l.883 2.646Zm-5.817-5.355 2.016-6.006 2.015 6.006h-4.031ZM272.638 7.444h-5.481v14.7h2.898v-4.83h2.583c2.835 0 5.019-2.184 5.019-4.935 0-2.75-2.184-4.935-5.019-4.935Zm0 7.161h-2.583v-4.452h2.583c1.239 0 2.142.945 2.142 2.226 0 1.26-.903 2.226-2.142 2.226ZM288.952 7.444v5.838h-5.46V7.444h-2.898v14.7h2.898v-6.09h5.46v6.09h2.877v-14.7h-2.877ZM307.243 7.444h-3.276l-3.192 6.132-3.192-6.132h-3.276l5.019 8.967v5.733h2.877v-5.733l5.04-8.967Z" fill="#38BDF8"/></svg>